<svg width="24" height="24" viewBox="0 0 24 24" fill="none" xmlns="http://www.w3.org/2000/svg">
<path fill-rule="evenodd" clip-rule="evenodd" d="M24 11.0905C24 17.2156 18.6274 22.181 12 22.181C10.5326 22.181 9.12677 21.9376 7.82713 21.4921L3.19862 23.8747C2.40317 24.2842 1.48174 23.6286 1.70659 22.8132L2.9351 18.3579C1.10669 16.4115 0 13.8704 0 11.0905C0 4.96539 5.37258 0 12 0C18.6274 0 24 4.96539 24 11.0905ZM14 11.3215C14 12.2148 13.2165 12.9389 12.25 12.9389C11.2835 12.9389 10.5 12.2148 10.5 11.3215C10.5 10.4283 11.2835 9.70418 12.25 9.70418C13.2165 9.70418 14 10.4283 14 11.3215ZM18.75 12.9389C19.7165 12.9389 20.5 12.2148 20.5 11.3215C20.5 10.4283 19.7165 9.70418 18.75 9.70418C17.7835 9.70418 17 10.4283 17 11.3215C17 12.2148 17.7835 12.9389 18.75 12.9389ZM7.5 11.3215C7.5 12.2148 6.7165 12.9389 5.75 12.9389C4.7835 12.9389 4 12.2148 4 11.3215C4 10.4283 4.7835 9.70418 5.75 9.70418C6.7165 9.70418 7.5 10.4283 7.5 11.3215Z" fill="black"/>
</svg>
