<svg width="24" height="24" viewBox="0 0 24 24" fill="none" xmlns="http://www.w3.org/2000/svg">
<path fill-rule="evenodd" clip-rule="evenodd" d="M12.0001 0C10.2859 0 10.2858 1.92703 10.2858 1.92703V10.4728H1.98682C1.98682 10.4728 0 10.4493 0 12.2182C0 13.9872 1.98682 13.9636 1.98682 13.9636H10.2858V22.2545C10.2858 22.2545 10.2856 24 12 24C13.7144 24 13.7144 22.2545 13.7144 22.2545V13.9636H22.1617C22.1617 13.9636 24 13.9636 24 12.2182C24 10.4728 22.1617 10.4728 22.1617 10.4728H13.7144V1.92703C13.7144 1.92703 13.7143 0 12.0001 0Z" fill="black"/>
</svg>
