<svg width="24" height="24" viewBox="0 0 24 24" fill="none" xmlns="http://www.w3.org/2000/svg">
<path fill-rule="evenodd" clip-rule="evenodd" d="M13.6435 17.0447C12.3134 17.7992 10.7748 18.2301 9.13534 18.2301C4.09003 18.2301 0 14.1491 0 9.11504C0 4.08094 4.09003 0 9.13534 0C14.1806 0 18.2707 4.08094 18.2707 9.11504C18.2707 10.586 17.9215 11.9756 17.3013 13.2057L23.1381 19.4624C23.1381 19.4624 25.0774 21.4422 23.1381 23.2433C21.1988 25.0445 19.2595 23.0646 19.2595 23.0646L13.6435 17.0447ZM14.6165 9.11504C14.6165 12.1355 12.1625 14.5841 9.13534 14.5841C6.10815 14.5841 3.65414 12.1355 3.65414 9.11504C3.65414 6.09458 6.10815 3.64602 9.13534 3.64602C12.1625 3.64602 14.6165 6.09458 14.6165 9.11504Z" fill="black"/>
</svg>
